<svg version="1.2" xmlns="http://www.w3.org/2000/svg" viewBox="0 0 873 217" width="873" height="217">
	<title>last_logo-pdf</title>
	<style>
		.s0 { fill: #231f20 } 
	</style>
	<path id="Path 1" fill-rule="evenodd" class="s0" d="m578.8 82c-1 35.4-30.3 63.4-65.7 62.8-24.2-0.2-48.5 0-72.7 0h-4.7v44.9q0 2.8-0.6 5.5c-1.1 3.3-3.9 5.7-7.3 6.1-4.8 0.6-9.1-2.8-9.7-7.6q-0.2-2-0.2-4.1v-162c0-9.1 2.9-11.9 12-11.9 28 0 55.9-0.2 83.8 0 37 0.2 66.3 29.9 65.1 66.3zm-64.7-48.7c-25.1-0.2-50.2 0-75.3 0-0.9 0-1.9 0.2-2.9 0.3v93.3q0.9 0.2 1.9 0.3c25.8 0 51.7 0.5 77.5-0.2 20.4-0.6 35.3-11.1 42.7-30.2 11.9-30.7-10.6-63-43.9-63.5zm180.2 157.9c0.6 4.8-2.8 9.2-7.5 9.8q-2.4 0.3-4.8 0.2h-68.2c-9.8 0-12.3-2.5-12.3-12.3v-160.9q0-2 0.1-4c0.2-4.6 3.9-8.2 8.5-8.3 4.5-0.1 8.4 3.2 8.9 7.7q0.3 2.4 0.2 4.8v155.4h62.9q2.4-0.1 4.8 0.2c3.9 0.5 6.9 3.6 7.4 7.4zm41.8-42.7c-3-3.2-3.2-6.7-1.6-10.6 4.2-9.8 8.4-19.6 12.5-29.3l36.9-86.1q0.3-0.7 0.6-1.4c0.9-2.2 2.7-3.9 4.9-4.8 4.6-1.8 9.8 0.4 11.6 5q24.9 58.4 49.8 116.8 0.6 1.7 0.9 3.6c-0.1 7.3-5.8 10.7-12.6 8.7-9.9-2.8-19.8-6.2-30-7.7-20.3-3.1-41-0.8-60.1 6.7-0.8 0.2-1.6 0.6-2.4 0.9-3.9 1.5-7.5 1.4-10.5-1.8zm22.2-20.6c22.6-5.5 46.3-5.5 68.9 0l-34.5-80.8c-11.6 27.3-22.8 53.6-34.4 80.8zm112.4 70.4c-3.8 4.1-9.1 3.8-13.8-0.6-19.4-18.1-42.4-27.1-69.1-25.8-21.7 0.9-42.3 9.6-58.1 24.5-0.5 0.5-1 1.1-1.5 1.6-4.5 4.1-9.9 4.3-13.5 0.5-3.7-3.8-3.3-9.4 0.9-13.5 20.8-19.9 48.4-31.1 77.2-31 29.4 0.4 54.9 10.5 76.4 30.7 4.7 4.4 5.2 9.6 1.5 13.6zm-870.7-173c0.3-5.8 3.6-9.6 8.8-9.6 5.1 0 8.9 4 8.9 9.7v58.9h125.7v-58.6c0-5.5 2.5-9 7.1-9.8 4.5-0.9 9 2 10.1 6.5q0.5 2.6 0.4 5.2v62.6c0 9.1-2.9 12-12 12h-137.5c-8.6 0-11.5-3-11.5-11.7zm160.9 164.4v2.3c-0.2 5.6-3.7 9.2-8.9 9.2-5.2 0-8.7-3.6-8.7-9.4v-59.1h-125.6v56.5q0.1 2.6-0.3 5.2c-0.8 4-4.4 6.9-8.5 6.8-4.2 0.2-7.8-2.7-8.5-6.7q-0.4-2.4-0.4-4.8v-63.1c0-8.9 2.9-11.8 11.7-11.8h137.2c9.1 0 12.1 3 12.1 11.9q0 31.5-0.1 63zm235.2-81.2c0 59.9-48.6 108.5-108.6 108.5-59.9 0-108.5-48.6-108.5-108.5 0-59.9 48.6-108.5 108.5-108.5 59.9 0 108.5 48.6 108.6 108.5zm-19.1-0.1c0-49.4-40-89.5-89.5-89.5-49.4 0-89.5 40.1-89.5 89.5 0 49.5 40.1 89.6 89.5 89.6 49.5 0 89.5-40.1 89.5-89.6zm-78.8-58.1c-2.7-2.4-3-6.8-0.6-9.5 2.3-2.7 6.8-3 9.5-0.6 9.8 8.6 17.3 19.4 22.6 31.3 5.4 11.6 8 24.7 8 37.5 0 12.8-2.6 25.3-7.7 36.9-5.1 11.6-12.5 22-21.7 30.6-2.7 2.7-7.2 2.4-9.5-0.3-2.7-2.6-2.4-7.1 0.2-9.5 8.1-7.4 14.3-16.4 18.8-26.2 4.2-9.8 6.6-20.5 6.6-31.5 0-11.3-2.4-22.1-6.9-32.2-4.5-10.1-11-19-19.3-26.5zm-30.4 12.5c-2.7-2.4-3-6.8-0.6-9.5 2.4-2.7 6.8-3 9.5-0.6 8.1 7.2 14.3 15.8 18.5 25.3 4.1 9.5 6.5 20 6.5 30.7 0 10.4-2.1 20.8-6.2 30-4.2 9.6-10.1 18.2-17.9 25-2.7 2.7-7.1 2.4-9.5-0.3-2.7-2.6-2.4-7.1 0.3-9.5 6.2-5.9 11.3-12.8 14.6-20.5 3.3-7.8 5-16.1 5-24.7 0-9-1.7-17.6-5.3-25.3-3.6-7.8-8.7-14.9-15.2-20.9zm-28.3 21.5c-2.7-2.4-3-6.9-0.6-9.6 2.4-2.6 6.9-2.9 9.6-0.6 4.7 4.5 8.6 9.9 11.3 15.8 2.6 6 4.1 12.5 4.1 19.1 0 6.5-1.5 12.8-3.8 18.7-2.7 6-6.3 11-11.1 15.5-2.6 2.7-7.1 2.4-9.5-0.3-2.7-2.7-2.4-7.1 0.3-9.5 3.3-3.3 6-6.9 7.8-11 1.7-4.2 2.6-8.7 2.6-13.1 0-4.8-0.9-9.3-2.9-13.4-1.8-4.2-4.5-8.1-8.1-11z"/>
</svg>